<?xml version="1.0" encoding="UTF-8"?>
<svg id="Layer_1" data-name="Layer 1" xmlns="http://www.w3.org/2000/svg" viewBox="0 0 241.53 47.66">
  <rect x="0" y="0" width="100%" height="100%" fill="#fff"/>
  <g transform="scale(0.8, 0.8) translate(30,5)">
    <path class="cls-1" d="M25.64,19.45c-.63-1.05-.97-2.27-.97-3.56h-1.68c0,1.29-.34,2.51-.97,3.56-.62,1.07-1.49,1.95-2.56,2.57-1.04.62-2.27.97-3.58.97v1.68c1.3,0,2.53.36,3.58.96,1.07.63,1.94,1.5,2.56,2.57.63,1.05.97,2.27.97,3.58h1.68c0-1.3.34-2.52.97-3.58.62-1.07,1.49-1.94,2.56-2.57,1.04-.6,2.27-.96,3.58-.96v-1.68c-1.3,0-2.53-.36-3.58-.97-1.07-.62-1.94-1.5-2.56-2.57Z"/>
    <path class="cls-1" d="M.47,15.89h5.01c.26,0,.47-.21.47-.47V5.95h9.45c.26,0,.47-.21.47-.47V.47c0-.26-.21-.47-.47-.47h0C6.9,0,0,6.9,0,15.41h0c0,.26.21.47.47.47Z"/>
    <path class="cls-1" d="M32.24,0h0c-.26,0-.47.21-.47.47v5c0,.26.21.47.47.47h9.45v9.46c0,.26.21.47.47.47h5.01c.26,0,.47-.21.47-.47h0c0-8.51-6.9-15.41-15.41-15.41Z"/>
    <path class="cls-1" d="M15.41,41.71H5.96v-9.46c0-.26-.21-.47-.47-.47H.47c-.26,0-.47.21-.47.47h0c0,8.51,6.9,15.41,15.41,15.41h0c.26,0,.47-.21.47-.47v-5c0-.26-.21-.47-.47-.47Z"/>
    <path class="cls-1" d="M47.18,31.77h-5.01c-.26,0-.47.21-.47.47v9.46h-9.45c-.26,0-.47.21-.47.47v5c0,.26.21.47.47.47h0c8.51,0,15.41-6.9,15.41-15.41h0c0-.26-.21-.47-.47-.47Z"/>
  </g>
  <g transform="scale(0.8, 0.8) translate(30,5)">
    <path class="cls-1" d="M74.56,32.52c-2.2-1.97-3.29-4.78-3.29-8.43s1.1-6.58,3.29-8.71c2.2-2.13,5.61-3.2,10.25-3.2,6.48,0,10.82,2.23,13.02,6.68-1.85.64-4.01,1.59-6.49,2.86-.6-1.15-1.53-2-2.82-2.55-1.28-.55-2.59-.83-3.92-.83-1.97,0-3.44.52-4.4,1.55-.96,1.04-1.45,2.31-1.45,3.83,0,1.64.52,2.98,1.55,4.02,1.04,1.04,2.62,1.55,4.75,1.55,1.7,0,3.06-.28,4.06-.85,1-.56,1.74-1.46,2.22-2.69,1.68.9,3.84,1.92,6.46,3.05-1.03,2.48-2.74,4.22-5.14,5.2-2.4.98-5.02,1.48-7.85,1.48-4.64,0-8.05-.98-10.25-2.95Z"/>
    <path class="cls-1" d="M124.93,24.8c-.87,1.23-2.37,2.12-4.48,2.68.25.33.42.58.52.77l4.99,6.93h-8.37c-.9-1.68-2.33-4.06-4.28-7.14h-4.52v7.14h-7.26c.16-3.98.25-7.7.25-11.17s-.08-7.19-.25-11.17h7.26v.03h6.31c4.14,0,7.04.67,8.68,2,1.64,1.33,2.46,3.14,2.46,5.42,0,1.78-.44,3.29-1.31,4.52ZM108.79,18.77v3.51h4.16c1.74,0,3.06-.06,3.95-.17.89-.11,1.51-.29,1.86-.54.35-.25.52-.6.52-1.08s-.16-.8-.49-1.05-.94-.42-1.85-.52c-.9-.1-2.24-.15-4-.15h-4.16Z"/>
    <path class="cls-1" d="M148.15,12.79h7.63v12.25c-.04,3.02-1.07,5.51-3.09,7.48s-5.42,2.95-10.2,2.95-8.16-.94-9.94-2.82c-1.78-1.88-2.66-4.34-2.62-7.4v-12.47h7.63v11.97c0,.9.07,1.64.2,2.2.13.56.56,1.09,1.29,1.59s1.9.74,3.52.74c1.76,0,3.06-.25,3.88-.75.82-.5,1.31-1.06,1.46-1.68.15-.62.23-1.41.23-2.37v-11.7Z"/>
    <path class="cls-1" d="M178.47,13.89c2.24.93,3.8,2.23,4.69,3.88.89,1.65,1.34,3.68,1.34,6.08,0,2.28-.51,4.27-1.54,5.97-1.03,1.7-2.57,3.02-4.62,3.95-2.05.93-4.58,1.4-7.57,1.4h-5.57c-1.89,0-3.8,0-5.72-.03.16-4.04.25-7.81.25-11.3s-.08-7.21-.25-11.05c2.44-.21,5.72-.31,9.85-.31,3.86,0,6.91.47,9.14,1.4ZM171.64,29.05c1.91,0,3.18-.46,3.82-1.39.64-.92.95-2.2.95-3.82s-.33-2.82-1-3.79c-.67-.96-1.92-1.45-3.77-1.45-1.99,0-3.48.06-4.46.18v10.25h4.46Z"/>
    <path class="cls-1" d="M211.39,12.79v10.86c0,3.84-.99,6.77-2.97,8.79-1.98,2.02-5.11,3.03-9.4,3.03-2.46,0-4.74-.36-6.82-1.08-2.08-.72-3.94-1.65-5.56-2.8.39-1.27.71-2.49.95-3.66.25-1.17.43-2.45.55-3.85,2.11,1.7,4.06,2.88,5.85,3.54,1.78.66,3.49.98,5.11.98s2.88-.38,3.6-1.14c.72-.76,1.09-2.06,1.11-3.91v-2.34c0-3.32-.09-6.14-.28-8.43h7.85Z"/>
    <path class="cls-1" d="M241.53,19.29c-3.22-.1-6.35-.16-9.39-.18v16.07h-7.69v-16.07c-3.06.02-6.18.08-9.36.18v-6.46h26.44v6.46Z"/>
  </g>
</svg>
