<?xml version="1.0" encoding="UTF-8"?>
<svg id="Layer_1" data-name="Layer 1" xmlns="http://www.w3.org/2000/svg" viewBox="0 0 160 160">
  <defs>
    <style>
      .cls-1 {
        fill: #fff;
      }
    </style>
  </defs>
  <rect class="cls-1" width="160" height="160"/>
  <g>
    <path d="M84.86,68.24c-1.69-2.83-2.61-6.1-2.61-9.57h-4.51c0,3.47-.92,6.74-2.61,9.57-1.65,2.86-4.01,5.25-6.87,6.9-2.8,1.65-6.1,2.61-9.6,2.61v4.51c3.5,0,6.8.95,9.6,2.58,2.86,1.69,5.21,4.04,6.87,6.9,1.69,2.83,2.61,6.1,2.61,9.6h4.51c0-3.5.92-6.77,2.61-9.6,1.65-2.86,4.01-5.21,6.87-6.9,2.8-1.62,6.1-2.58,9.6-2.58v-4.51c-3.5,0-6.8-.95-9.6-2.61-2.86-1.65-5.21-4.04-6.87-6.9Z"/>
    <path d="M17.27,58.67h13.46c.7,0,1.27-.57,1.27-1.27v-25.42h25.39c.7,0,1.27-.57,1.27-1.27v-13.44c0-.7-.57-1.27-1.27-1.27h0c-22.86,0-41.4,18.53-41.4,41.4h0c0,.7.57,1.27,1.27,1.27Z"/>
    <path d="M102.6,16h0c-.7,0-1.27.57-1.27,1.27v13.44c0,.7.57,1.27,1.27,1.27h25.39v25.42c0,.7.57,1.27,1.27,1.27h13.46c.7,0,1.27-.57,1.27-1.27h0c0-22.86-18.53-41.4-41.4-41.4Z"/>
    <path d="M57.4,128.02h-25.39v-25.42c0-.7-.57-1.27-1.27-1.27h-13.46c-.7,0-1.27.57-1.27,1.27h0c0,22.86,18.54,41.4,41.4,41.4h0c.7,0,1.27-.57,1.27-1.27v-13.44c0-.7-.57-1.27-1.27-1.27Z"/>
    <path d="M142.73,101.33h-13.46c-.7,0-1.27.57-1.27,1.27v25.42h-25.39c-.7,0-1.27.57-1.27,1.27v13.44c0,.7.57,1.27,1.27,1.27h0c22.86,0,41.4-18.53,41.4-41.4h0c0-.7-.57-1.27-1.27-1.27Z"/>
  </g>
</svg>